
        <svg xmlns="http://www.w3.org/2000/svg" xmlns:xlink="http://www.w3.org/1999/xlink" version="1.1" width="3198.049183289035" 
        height="2823.8216621588454" viewBox="0 0 3198.049183289035 2823.8216621588454">
			
			<g transform="scale(9.902459164451782) translate(10, 10)">
				<defs id="SvgjsDefs5073"></defs><g id="SvgjsG5074" featureKey="7KWit6-0" transform="matrix(3.303231508284613,0,0,3.303231508284613,-15.152057646199808,-52.06463016569225)" fill="#6a2c70"><title xmlns="http://www.w3.org/2000/svg">Payment</title><path xmlns="http://www.w3.org/2000/svg" d="M77,30H38V21a1,1,0,0,0-1-1H29a6.007,6.007,0,0,0-6,6V62.3A5.991,5.991,0,0,0,28.75,70H77a1,1,0,0,0,1-1V31A1,1,0,0,0,77,30ZM56.75,50A12.98,12.98,0,0,1,35.47,60H37a1,1,0,0,0,1-1V38.331c.009,0,.018,0,.027-.007A12.863,12.863,0,0,1,43.75,37,13.015,13.015,0,0,1,56.75,50ZM51.2,37H64.063A8.015,8.015,0,0,0,71,43.938V56.063A8.015,8.015,0,0,0,64.063,63H51.2a14.969,14.969,0,0,0,0-26ZM25,62.653A3.993,3.993,0,0,1,28.75,60h3.844a15,15,0,0,0,3.7,3H25ZM29,22h7V58H28.75A5.968,5.968,0,0,0,25,59.324V56a1,1,0,0,0,1-1,6.007,6.007,0,0,1,6-6,1,1,0,0,0,1-1V34a1,1,0,0,0-1-1,6.007,6.007,0,0,1-6-6,1,1,0,0,0-1-1A4,4,0,0,1,29,22Zm-4,8.828a8,8,0,0,0,6,4.109V47.063a8,8,0,0,0-6,4.109ZM76,68H28.75a4,4,0,0,1-3.858-3H65a1,1,0,0,0,1-1,6.007,6.007,0,0,1,6-6,1,1,0,0,0,1-1V43a1,1,0,0,0-1-1,6.007,6.007,0,0,1-6-6,1,1,0,0,0-1-1H38V32H76Z"></path><path xmlns="http://www.w3.org/2000/svg" d="M43,56.508V57a1,1,0,0,0,2,0v-.536a3.643,3.643,0,0,0,3.021-3.1c.164-2.124-1.3-3.2-3.021-4.022V45.511a4.791,4.791,0,0,1,1.166.542.988.988,0,1,0,1.063-1.667A6.377,6.377,0,0,0,45,43.552V42a1,1,0,0,0-2,0v1.588a3.575,3.575,0,0,0-2.92,3.091c-.169,2.192,1.238,3.145,2.92,3.926v3.941a4.879,4.879,0,0,1-1.628-.954.982.982,0,0,0-1.627.812.968.968,0,0,0,.348.675A6.551,6.551,0,0,0,43,56.508Zm0-8.122a1.592,1.592,0,0,1-.96-1.572,1.439,1.439,0,0,1,.532-.989A1.784,1.784,0,0,1,43,45.572Zm3.012,4.857A1.581,1.581,0,0,1,45,54.469V51.6C45.786,52.11,46.062,52.593,46.012,53.242Z"></path><circle xmlns="http://www.w3.org/2000/svg" cx="63.5" cy="49.5" r="1.5"></circle></g><g id="SvgjsG5075" featureKey="ewgXDI-0" transform="matrix(3.4884336679048893,0,0,3.4884336679048893,-2.4419029021675036,194.557779903736)" fill="#6a2c70"><path d="M6.14 9.42 c1.9 0 3.5 0.8 4.48 2.48 l-2.4 1.14 c-0.52 -0.44 -0.94 -0.84 -2.04 -0.84 c-1.2 0 -2.42 0.92 -2.42 2.62 c0 1.68 1.22 2.56 2.42 2.56 c1.1 0 1.52 -0.36 2.04 -0.8 l2.44 1.14 c-1.02 1.68 -2.58 2.44 -4.52 2.44 c-2.32 0 -5.44 -1.66 -5.44 -5.34 c0 -3.62 3.12 -5.4 5.44 -5.4 z M19.759999999999998 9.6 l3.16 0 l0 10.4 l-3.16 0 l0 -1.04 c-0.14 0.36 -1.08 1.24 -2.68 1.24 c-2.38 0 -5.12 -1.7 -5.12 -5.42 c0 -3.58 2.74 -5.36 5.12 -5.36 c1.6 0 2.54 0.92 2.68 1.14 l0 -0.96 z M17.54 17.42 c1.3 0 2.36 -0.9 2.36 -2.64 c0 -1.68 -1.06 -2.58 -2.36 -2.58 c-1.36 0 -2.52 0.92 -2.52 2.58 c0 1.72 1.16 2.64 2.52 2.64 z M29.9 12.879999999999999 c-0.28 -0.72 -0.7 -0.96 -1.16 -0.96 c-0.42 0 -0.84 0.24 -0.84 0.64 c0 0.38 0.24 0.6 0.7 0.76 l1.32 0.46 c1.48 0.54 2.98 1.08 2.98 3.16 c0 2.1 -2.1 3.3 -4.26 3.3 c-1.94 0 -3.76 -1.14 -4.2 -2.96 l2.48 -0.78 c0.26 0.58 0.72 1.24 1.72 1.24 c0.68 0 1.12 -0.44 1.12 -0.84 c0 -0.2 -0.16 -0.46 -0.66 -0.66 l-1.22 -0.44 c-2.08 -0.76 -3.06 -1.82 -3.06 -3.3 c0 -1.94 1.8 -3.08 3.78 -3.08 c2.02 0 3.36 1.1 3.96 2.76 z M40.9 9.44 c1.94 0 3.92 1.3 3.92 4.6 l0 5.96 l-3.16 0 l0 -5.74 c0 -1.58 -0.54 -2.08 -1.54 -2.08 c-1.42 0 -2.24 1.38 -2.44 1.98 l0 5.84 l-3.16 0 l0 -14.14 l3.16 0 l0 5.54 c0.2 -0.5 1.26 -1.96 3.22 -1.96 z M54.22 9.6 l3.16 0 l0 10.4 l-3.16 0 l0 -1.04 c-0.14 0.36 -1.08 1.24 -2.68 1.24 c-2.38 0 -5.12 -1.7 -5.12 -5.42 c0 -3.58 2.74 -5.36 5.12 -5.36 c1.6 0 2.54 0.92 2.68 1.14 l0 -0.96 z M52 17.42 c1.3 0 2.36 -0.9 2.36 -2.64 c0 -1.68 -1.06 -2.58 -2.36 -2.58 c-1.36 0 -2.52 0.92 -2.52 2.58 c0 1.72 1.16 2.64 2.52 2.64 z M65.26 9.42 c2.38 0 5.12 1.78 5.12 5.36 c0 3.72 -2.74 5.42 -5.12 5.42 c-1.6 0 -2.54 -0.88 -2.68 -1.24 l0 1.04 l-3.16 0 l0 -10.4 l0 -3.74 l3.16 0 l0 4.7 c0.14 -0.22 1.08 -1.14 2.68 -1.14 z M64.8 17.42 c1.36 0 2.52 -0.92 2.52 -2.64 c0 -1.66 -1.16 -2.58 -2.52 -2.58 c-1.3 0 -2.36 0.9 -2.36 2.58 c0 1.74 1.06 2.64 2.36 2.64 z M75.25999999999999 5.859999999999999 l0 14.14 l-3.16 0 l0 -14.14 l3.16 0 z M82.46000000000001 9.42 c2.36 0 5.66 1.78 5 6.48 l-7.26 0 c0.36 1.08 1.3 1.64 2.56 1.64 c1.28 0 1.68 -0.28 2.4 -0.58 l1.74 1.68 c-0.92 0.9 -2.16 1.56 -4.26 1.56 c-2.58 0 -5.66 -1.78 -5.66 -5.36 c0 -3.64 3.12 -5.42 5.48 -5.42 z M82.46000000000001 12.120000000000001 c-0.9 0 -1.82 0.52 -2.22 1.56 l4.42 0 c-0.32 -1.04 -1.3 -1.56 -2.2 -1.56 z"></path></g>
			</g>
		</svg>
	